<svg width="120" height="120" viewBox="0 0 120 120" fill="none" xmlns="http://www.w3.org/2000/svg">
<circle cx="60" cy="60" r="60" fill="black" fill-opacity="0.2"/>
<path fill-rule="evenodd" clip-rule="evenodd" d="M66.1625 44.905L96.0434 22.5L66.1675 44.91L66.1625 44.905ZM76.4755 89.7185L94.2807 94.6873L99.3813 77.1249L93.8793 59.9375L97.4961 55.6563L95.9197 54.4999L98.4234 52.1876L96.507 50.6875L99.0109 48.75L97.3724 47.4687L100 34.5312L96.0434 22.5L70.603 32.125L49.397 32.125L23.9567 22.5L20 34.5312L22.6584 47.4687L20.9583 48.75L23.493 50.6875L21.5765 52.1876L24.0804 54.4999L22.5039 55.6563L26.1206 59.9375L20.6489 77.1249L25.7184 94.6873L43.4929 89.7185L54.1574 84.5001L55.6412 83.4375H64.3586L65.8424 84.5001L76.1405 89.5541L65.8424 84.5003L66.7078 91.5L65.9043 90.8124H54.096L53.3231 91.5L54.1576 84.5003L43.4931 89.7187L46.9552 92.5937L53.9722 97.5H65.9968L73.0448 92.5937L76.4755 89.7185ZM50.9734 67.0935L44.7297 69.9998L53.5708 72.6249L50.9734 67.0935ZM69.0259 67.0935L75.3015 69.9998L66.4297 72.6252L69.0259 67.0935Z" fill="white" fill-opacity="0.2"/>
<path d="M53.5701 72.625L44.7292 70.0001L50.9734 67.0938L53.5701 72.625Z" fill="black" fill-opacity="0.2"/>
<path d="M66.4297 72.625L69.0264 67.0938L75.3015 70.0001L66.4297 72.625Z" fill="black" fill-opacity="0.2"/>
<path d="M65.8422 84.4998L64.3583 83.4375H55.6412L54.1576 84.4998L53.3229 91.5L54.0957 90.8124H65.904L66.7078 91.5L65.8422 84.4998Z" fill="black" fill-opacity="0.2"/>
</svg>
