<svg width="159" height="159" viewBox="0 0 159 159" fill="none" xmlns="http://www.w3.org/2000/svg">
<path fill-rule="evenodd" clip-rule="evenodd" d="M110.8 59.3191C93.5134 42.0603 65.4867 42.0603 48.2004 59.3191L45.9169 61.5989C45.0526 62.4619 45.0526 63.861 45.9169 64.7239L53.0337 71.8293C53.4658 72.2608 54.1665 72.2608 54.5987 71.8293L57.6646 68.7683C69.724 56.7281 89.2761 56.7281 101.335 68.7683L104.198 71.6266C104.631 72.0581 105.331 72.0581 105.763 71.6266L112.88 64.5212C113.744 63.6583 113.744 62.2592 112.88 61.3962L110.8 59.3191ZM131.852 80.3377L125.518 74.0139C124.654 73.1509 123.252 73.1509 122.388 74.0139L102.118 94.2518C101.902 94.4675 101.551 94.4675 101.335 94.2518L81.0647 74.0135L81.0647 74.0134C80.2003 73.1505 78.799 73.1505 77.9347 74.0135L57.6652 94.2518C57.4491 94.4675 57.0988 94.4675 56.8827 94.2518L36.6121 74.0135C35.7478 73.1506 34.3465 73.1506 33.4822 74.0135L27.1482 80.3373C26.2839 81.2003 26.2839 82.5994 27.1482 83.4623L55.7092 111.978C56.5735 112.841 57.9748 112.841 58.8391 111.978L79.1089 91.7398C79.325 91.5241 79.6754 91.5241 79.8914 91.7398L100.162 111.978C101.026 112.841 102.427 112.841 103.292 111.978L131.852 83.4627C132.716 82.5998 132.716 81.2007 131.852 80.3377Z" fill="white" fill-opacity="0.2"/>
</svg>
